<?xml version="1.0" encoding="UTF-8"?>
<!DOCTYPE svg PUBLIC "-//W3C//DTD SVG 1.1//EN" "http://www.w3.org/Graphics/SVG/1.1/DTD/svg11.dtd">
<!-- Creator: CorelDRAW -->
<svg xmlns="http://www.w3.org/2000/svg" xml:space="preserve" width="12.6998mm" height="8.4666mm" version="1.1" style="shape-rendering:geometricPrecision; text-rendering:geometricPrecision; image-rendering:optimizeQuality; fill-rule:evenodd; clip-rule:evenodd"
viewBox="0 0 1269.98 846.66"
 xmlns:xlink="http://www.w3.org/1999/xlink"
 xmlns:xodm="http://www.corel.com/coreldraw/odm/2003">
 <defs>
  <style type="text/css">
   <![CDATA[
    .fil1 {fill:url(#id0);fill-rule:nonzero}
    .fil2 {fill:url(#id1);fill-rule:nonzero}
    .fil3 {fill:url(#id2);fill-rule:nonzero}
    .fil4 {fill:url(#id3);fill-rule:nonzero}
    .fil0 {fill:url(#id4);fill-rule:nonzero}
   ]]>
  </style>
  <linearGradient id="id0" gradientUnits="userSpaceOnUse" x1="58.27" y1="331.55" x2="285.34" y2="479.73">
   <stop offset="0" style="stop-opacity:1; stop-color:#42AD4E"/>
   <stop offset="0.458824" style="stop-opacity:1; stop-color:#21BCA6"/>
   <stop offset="1" style="stop-opacity:1; stop-color:#00CCFF"/>
  </linearGradient>
  <linearGradient id="id1" gradientUnits="userSpaceOnUse" xlink:href="#id0" x1="440.07" y1="219.35" x2="802.34" y2="627.32">
  </linearGradient>
  <linearGradient id="id2" gradientUnits="userSpaceOnUse" xlink:href="#id0" x1="364.34" y1="532.33" x2="942.04" y2="789.23">
  </linearGradient>
  <linearGradient id="id3" gradientUnits="userSpaceOnUse" xlink:href="#id0" x1="369.53" y1="53.26" x2="934.67" y2="289.96">
  </linearGradient>
  <linearGradient id="id4" gradientUnits="userSpaceOnUse" xlink:href="#id0" x1="706.5" y1="324.22" x2="1156.95" y2="472.4">
  </linearGradient>
 </defs>
 <g id="Capa_x0020_1">
  <metadata id="CorelCorpID_0Corel-Layer"/>
  <g id="_3057957347120">
   <path class="fil0" d="M1151.23 293.68c-39.11,-2.09 -73.86,17.4 -93.5,47.61 -17.87,27.49 -49.79,42.56 -82.58,42.56l-86.8 0c-32.8,0 -64.73,-15.07 -82.61,-42.57 -19.65,-30.21 -54.42,-49.71 -93.53,-47.59 -53.84,2.9 -97.95,48.66 -98.98,102.57 -1.13,58.7 46.29,106.82 104.76,106.82 32.61,0 61.74,-15 80.95,-38.46 17.17,-20.98 43.88,-31.79 70.99,-31.79l123.62 0c27.11,0 53.82,10.81 70.99,31.79 19.2,23.46 48.32,38.46 80.94,38.46 58.46,0 105.9,-48.13 104.76,-106.84 -1.05,-53.91 -45.18,-99.66 -99.01,-102.56zm-433.24 160.42l0 0c-30.76,0 -55.8,-25.03 -55.8,-55.79 0,-30.76 25.04,-55.8 55.8,-55.8 30.75,0 55.79,25.04 55.79,55.8 0,30.76 -25.04,55.79 -55.79,55.79zm427.49 0l0 0c-30.76,0 -55.78,-25.03 -55.78,-55.79 0,-30.76 25.02,-55.8 55.78,-55.8 30.76,0 55.79,25.04 55.79,55.8 0,30.76 -25.03,55.79 -55.79,55.79z"/>
   <path class="fil1" d="M307.88 440.16c14.88,0 26.65,-13.25 24.16,-28.6 -1.96,-12.04 -13.26,-20.38 -25.46,-20.38l-28.24 0c-30.63,0 -57.87,-16.88 -74.57,-42.56 -19.65,-30.22 -54.4,-49.71 -93.52,-47.6 -53.83,2.9 -97.95,48.66 -98.99,102.57 -1.13,58.7 46.3,106.83 104.76,106.83 32.62,0 61.75,-15.01 80.95,-38.47 15.83,-19.34 38.52,-31.79 63.51,-31.79l47.4 0zm-191.86 21.27l0 0c-30.77,0 -55.8,-25.03 -55.8,-55.79 0,-30.76 25.03,-55.79 55.8,-55.79 30.76,0 55.79,25.03 55.79,55.79 0,30.76 -25.03,55.79 -55.79,55.79z"/>
   <path class="fil2" d="M653.5 200.17c50.08,0 99.45,17.3 138.99,48.71 14.12,11.2 34.64,8.88 45.9,-5.27 11.21,-14.12 8.85,-34.67 -5.27,-45.89 -51.05,-40.54 -114.84,-62.86 -179.62,-62.86 -159.06,0 -288.47,129.41 -288.47,288.47 0,159.06 129.41,288.47 288.47,288.47 82.45,0 161.05,-35.24 215.63,-96.69 11.98,-13.49 10.76,-34.13 -2.72,-46.1 -13.51,-11.99 -34.13,-10.74 -46.1,2.72 -42.21,47.51 -103.01,74.76 -166.81,74.76 -123.05,0 -223.16,-100.11 -223.16,-223.16 0,-123.05 100.11,-223.16 223.16,-223.16z"/>
   <path class="fil3" d="M1036.71 482.76c-17.48,-4.19 -35.18,6.52 -39.44,24.06 -38.51,159.15 -179.87,270.3 -343.77,270.3 -165.13,0 -306.74,-112.17 -344.36,-272.79 -4.11,-17.57 -21.72,-28.45 -39.24,-24.35 -17.57,4.12 -28.47,21.69 -24.35,39.24 44.57,190.3 212.33,323.21 407.95,323.21 194.15,0 361.63,-131.7 407.27,-320.25 4.24,-17.53 -6.54,-35.18 -24.06,-39.42z"/>
   <path class="fil4" d="M275.26 337.44c3.29,1.04 6.61,1.53 9.89,1.53 13.85,0 26.71,-8.88 31.12,-22.78 46.83,-147.53 182.35,-246.65 337.23,-246.65 149.73,0 283.82,94.79 333.65,235.87 0.33,1.18 0.68,2.35 1.08,3.5 5.95,17.01 24.53,26.01 41.59,20 17.03,-5.94 26.01,-24.63 20.06,-41.65 -0.34,-1.17 -0.69,-2.34 -1.13,-3.61 -59.05,-167.13 -217.91,-279.42 -395.25,-279.42 -183.47,0 -344.01,117.42 -399.48,292.2 -5.46,17.19 4.05,35.55 21.24,41.01z"/>
  </g>
 </g>
</svg>
